<svg width="24" height="24" viewBox="0 0 24 24" fill="none" xmlns="http://www.w3.org/2000/svg">
<path d="M11.4989 17.2407C11.4989 18.5754 11.4989 19.2429 11.7985 19.5701C12.0587 19.8542 12.4514 20.013 12.8603 19.9992C13.331 19.9833 13.8852 19.5399 14.9937 18.6533L21.5446 13.4125C22.1552 12.9239 22.4605 12.6797 22.5729 12.3912C22.6718 12.138 22.6718 11.862 22.5729 11.6087C22.4605 11.3203 22.1552 11.076 21.5446 10.5875L14.9937 5.34679C13.8852 4.46005 13.331 4.01668 12.8603 4.00083C12.4514 3.98705 12.0587 4.14575 11.7985 4.42999C11.4989 4.75718 11.4989 5.42453 11.4989 6.75925V17.2407Z" fill="#DADADA"/>
<path d="M1 17.2407C1 18.5754 1 19.2429 1.29957 19.5701C1.55981 19.8542 1.9525 20.013 2.36144 19.9992C2.83217 19.9833 3.38638 19.5399 4.49478 18.6533L11.0457 13.4125C11.6564 12.9239 11.9616 12.6797 12.0741 12.3912C12.1729 12.138 12.1729 11.862 12.0741 11.6087C11.9616 11.3203 11.6564 11.076 11.0457 10.5875L4.49478 5.34679C3.38638 4.46005 2.83217 4.01668 2.36144 4.00083C1.9525 3.98705 1.55981 4.14575 1.29957 4.42999C1 4.75718 1 5.42453 1 6.75925V17.2407Z" fill="#DADADA"/>
</svg>
