<svg width="24" height="24" viewBox="0 0 24 24" fill="none" xmlns="http://www.w3.org/2000/svg">
<path d="M6 5.85778C6 5.00689 6 4.58145 6.18541 4.34692C6.34694 4.14261 6.59383 4.01618 6.8611 4.00091C7.16788 3.98338 7.53783 4.21938 8.27775 4.69137L17.9066 10.8336C18.5179 11.2236 18.8236 11.4186 18.9301 11.6644C19.0233 11.8793 19.0233 12.1207 18.9301 12.3357C18.8236 12.5814 18.5179 12.7764 17.9066 13.1664L8.27775 19.3086C7.53783 19.7806 7.16788 20.0166 6.8611 19.9991C6.59383 19.9838 6.34694 19.8574 6.18541 19.6531C6 19.4185 6 18.9931 6 18.1422V5.85778Z" fill="#DADADA" stroke="#DADADA" stroke-width="2" stroke-linecap="round" stroke-linejoin="round"/>
</svg>
