<svg width="24" height="24" viewBox="0 0 24 24" fill="none" xmlns="http://www.w3.org/2000/svg">
<path d="M8 7.30045C8 6.70482 8 6.40701 8.12551 6.24285C8.23485 6.09983 8.40198 6.01133 8.5829 6.00064C8.79057 5.98836 9.04099 6.15357 9.54186 6.48396L16.0598 10.7835C16.4737 11.0565 16.6806 11.193 16.7527 11.365C16.8158 11.5155 16.8158 11.6845 16.7527 11.835C16.6806 12.007 16.4737 12.1435 16.0598 12.4165L9.54186 16.716C9.04099 17.0464 8.79057 17.2116 8.5829 17.1994C8.40198 17.1887 8.23485 17.1002 8.12551 16.9572C8 16.793 8 16.4952 8 15.8996V7.30045Z" fill="#6E6E6E" stroke="#6E6E6E" stroke-width="2" stroke-linecap="round" stroke-linejoin="round"/>
</svg>
